<?xml version="1.0" encoding="utf-8"?>
<!-- Generator: Adobe Illustrator 27.0.0, SVG Export Plug-In . SVG Version: 6.00 Build 0)  -->
<svg version="1.1" id="Layer_1" xmlns="http://www.w3.org/2000/svg" xmlns:xlink="http://www.w3.org/1999/xlink" x="0px" y="0px"
	 viewBox="0 0 231.89 167.46" style="enable-background:new 0 0 231.89 167.46;" xml:space="preserve">
<style type="text/css">
	.st0{fill:#660000;}
</style>
<g>
	<g>
		<path class="st0" d="M31.82,83.72c0.02,5.31,0.55,10.63,1.59,15.84c1.05,5.21,2.64,10.3,4.7,15.19
			c4.14,9.78,10.3,18.65,17.86,26.02c7.58,7.37,16.65,13.12,26.41,16.95c9.78,3.81,20.27,5.59,30.66,5.35
			c10.4-0.25,20.68-2.55,30.1-6.71c9.44-4.12,17.97-10.15,25.09-17.47c7.14-7.32,12.76-16.04,16.58-25.46
			c3.82-9.42,5.79-19.56,5.78-29.72c0.01-10.16-1.95-20.3-5.77-29.72c-3.8-9.42-9.44-18.15-16.58-25.47
			c-7.12-7.33-15.66-13.36-25.1-17.48c-9.42-4.16-19.7-6.46-30.11-6.71c-10.4-0.24-20.89,1.54-30.66,5.36
			c-9.76,3.83-18.83,9.58-26.41,16.96c-7.56,7.38-13.72,16.25-17.86,26.03C33.95,62.46,31.84,73.09,31.82,83.72 M31.82,83.72
			c-0.01-10.63,2.05-21.26,6.05-31.13c3.99-9.87,9.89-19,17.37-26.65c7.46-7.66,16.4-13.96,26.29-18.26
			c9.87-4.34,20.63-6.74,31.5-6.98c10.87-0.24,21.85,1.64,32.07,5.64c10.21,4.01,19.68,10.04,27.59,17.75
			c7.9,7.71,14.32,16.99,18.65,27.21c2.15,5.11,3.82,10.44,4.91,15.88c1.09,5.45,1.64,11,1.66,16.55
			c-0.02,11.1-2.22,22.22-6.57,32.43c-4.32,10.23-10.76,19.5-18.65,27.22c-7.91,7.71-17.39,13.74-27.6,17.75
			c-10.22,4.01-21.21,5.88-32.07,5.64c-10.87-0.25-21.64-2.65-31.51-6.99c-9.89-4.3-18.83-10.61-26.29-18.27
			c-7.48-7.66-13.38-16.79-17.37-26.65C33.87,104.98,31.8,94.35,31.82,83.72"/>
	</g>
	<g>
		<path class="st0" d="M154.43,94.26c7.28-2.61,9.59-7.26,10.91-10.53c0.42-1.19,0.97-2.2-0.15-2.86c-0.32-0.15-0.8-0.24-1.27,0.07
			C159.01,84.17,155.54,89.69,154.43,94.26 M146.85,106.37c-0.93,1.25-4.58,4.6-5.92,5.67c-0.23,0.18-0.47,0.35-0.71,0.52
			c-1.15,0.81-2.42,1.34-3.91,1.36c-0.89,0.01-1.64-0.1-2.71-0.53c-2.77-1.31-4.23-4.02-4.61-7.05c-0.36-2.88,4.91-19.86,4.94-19.95
			c0.25-0.91,0.38-1.26,0.16-1.6c-0.09-0.14-0.2-0.28-0.47-0.37c-0.22-0.07-0.5-0.13-0.87-0.2c-0.48-0.1-1.04-0.17-1.51-0.31
			c-0.01,0-0.01,0-0.01,0c-0.76-0.22-1.56,0.17-1.83,0.91c-3.09,8.22-7.6,16.86-13,23.64c-1.55,1.95-2.27,2.7-4.41,4.01
			c-2.67,2.07-9.99,3.27-12.64-2.68c-1.07-2.62-1.11-5.42-0.9-8.22c0.12-1.65,0.36-3.3,0.56-5.14c-0.29,0.38-0.5,0.64-0.69,0.91
			c-2.71,3.8-9.98,13.66-11.5,15.23c-0.5,0.52-1.02,0.98-1.7,1.25c-1.09,0.43-2.56-0.4-2.56-1.91c0-1.41,11.05-38,13.2-43.75
			c0.14-0.36,0.27-0.73,0.46-1.22c-2-0.21-3.89-0.51-5.8-0.57c-1.94-0.07-3.89,0.05-5.82,0.19c-0.59,0.04-1.13,0.4-1.67,0.67
			c-1.01,0.51-1.85,0.48-2.74-0.22c-0.24-0.22-0.44-0.42-0.59-0.73c-0.26-0.57-0.36-1.24-0.03-2.01c0.32-0.75,0.84-1.35,1.38-1.8
			c0.84-0.69,2-1.04,3.19-0.95c2.98,0.41,11.19,1.9,12.75,2.11c0.51,0.07,0.88-0.14,1.04-0.71c0.54-2.25,2.21-8.28,2.59-8.97
			c0.35-0.64,1.4-0.95,2-0.09c0.66,1.05,1.43,2.73,1.65,3.93c0.41,2.26-0.03,4.5-1.33,6.36c1.16,0,2.18,0.02,3.19,0
			c3.74-0.09,7.48-0.16,11.21-0.32c0.64-0.03,1.05-0.39,1.27-0.81c0.53,0.14,0.93,0.38,1.09,0.95c0.23,0.79-0.24,1.37-0.78,1.91
			c-1.28,1.26-2.85,1.99-4.61,2.01c-3-0.05-9.57-0.39-9.96-0.42c-2.25-0.18-2.34-0.13-3.14,2.02c-4.34,11.54-8.37,22.92-12.24,34.89
			c-0.09,0.3-0.17,0.61-0.23,0.93c-0.05,0.26,0.29,0.42,0.45,0.21l0-0.01c4.82-6.15,10.27-13.62,15.99-22.62
			c1.87-2.27,2.97-4.52,6.1-6.08c1.17-0.58,2.13-0.67,3.42-0.83c2.21-0.26,4.85,0.27,6.27,2.44c0.5,1.1,0.64,1.52,0.72,2.72
			c0.18,2.82-2.56,9.77-4,10.03c-0.54,0.26-1.93-0.08-1.8-1.54c0.17-1.92,0.93-7.1,0.87-7.78c-0.06-0.66-0.43-0.99-0.96-0.85
			c-9.19,2.38-15.29,18.58-10.05,29.57c0.86,1.81,3.45,1.72,5.03,0.47c1.73-1.36,3.03-2.93,4.42-4.63
			c4.02-4.81,7.42-9.73,9.93-16.02c0.82-1.85,1.36-3.83,2.1-5.71c0.27-0.44,0.45-2.28-0.71-3.56c-1.44-1.74-2.37-3.23-2.6-5.39
			c-0.15-2.31,0.18-3.13,0.63-4.52c1.08-2.82,5.03-7.15,11.94-5.96c-3.31,0.2-5.63,3.03-6.01,3.36c-2.42,3.29-2.51,6.46-1.52,9.22
			c1.72,4.08,5.5,5.33,7.87,5.43c0.62-0.01,0.9,0.11,1.2,0.2c1.17,0.47,2.45,1.74,2.29,3.75c-0.21,1.79-4.61,19.01-4.54,20.51
			c0.06,1.39,0.63,1.74,1.32,2.1c0.58,0.31,1.36,0.23,2.1-0.24c1.04-0.7,6.13-6.08,7.51-8.74c0.29-0.44,0.55-1.19,0.66-1.73
			c1.46-7.22,4.42-13.47,9.15-19.09c2.01-2.39,4.6-3.82,7.76-4.03c1.89-0.14,3.82,1.54,4.31,2.65c1.49,3.49,1.24,6.88-1.19,10.03
			c-2.41,3.19-5.43,5.45-8.95,7.14c-1.41,0.67-3.17,1.23-4.6,1.57c-0.39,0.18-1.95,5.13-1.3,8.54c0.54,2.15,1.84,3.4,3.22,3.67
			c4.16,0.81,10.58-5.47,12.79-8.01c6.99-8.07,7.54-16.98,7.74-17.61c0.07-0.24,0.27-0.37,0.52-0.34c0.18,0.03,0.33,0.23,0.33,0.32
			c0.91,10.68-6.81,22.07-11.59,25.98c-2.11,1.72-6.84,4.01-9.18,4.01c-1.86,0-4.8-0.73-6.65-2.52
			C147.69,109.53,146.92,106.72,146.85,106.37"/>
	</g>
	<g>
		<path class="st0" d="M61.16,53.34c2.39-0.28,4.95,1.23,5.7,3.56c0.15,0.45,0.39,1.19,0.33,1.69c-0.21,1.89-0.79,3.56-1.42,5.35
			c-4.41,12.55-8.46,25.03-12.29,37.95c-0.35,1.28-1.01,3.07-1.14,4.45C57.5,99.2,60.81,94.7,68.54,83.6
			c-1.45,6.14-4.37,12.57-7.51,17.71c-2.3,3.98-5.55,8.12-7.71,10.54c-0.26,0.29-0.63,0.72-0.86,0.95c-0.78,0.8-1.27,0.97-1.97,1
			c-0.67,0.03-1.49-0.25-2.16-1.09c-1.15-1.45-1.25-3.19-1.13-4.93c1.02-4.48,13.69-46.01,13.91-46.83
			c0.04-0.14,0.96-2.37,1.18-2.99C62.86,56.43,62.82,54.65,61.16,53.34"/>
	</g>
	<g>
		<path class="st0" d="M79.06,81.68c-3.67,1.44-6.07,4.45-6.85,8.9c-0.16,3.7,1.65,9.63,2.25,10.55c0.69,1.61,1.61,3.25,2.4,4.82
			c0.62,1.24,1.11,2.54,0.85,3.92c-0.4,2.15-1.89,3.45-3.96,3.83c-2.28,0.42-4.35,0.22-6.29-0.47c-1.18-0.42-2.33-1.01-3.39-1.81
			c-0.53-0.4-1.06-0.92-1.56-1.41c-0.46-0.45-1.01-1.05-1.25-1.68c-0.2-0.75,0.06-1.41,0.74-1.8c0.66-0.38,1.42-0.15,1.87,0.34
			c0.7,0.84,1.55,1.39,2.39,1.78c1.61,0.75,3.23,0.88,5.26,0.51c1.44-0.23,1.61-0.5,1.04-1.88c-1.14-2.78-2.27-5.44-3.48-8.19
			c-3-6.79-0.99-16.27,4.55-20.69c0.57-0.46,1.22-0.97,1.83-1.31c0.74-0.41,1.48-0.6,2.32-0.88c3.16-0.8,5.98,0.9,7.01,4.09
			c1.03,3.21,0.61,5.96-0.97,8.97c-0.23,0.43-0.66,1.68-2.34,1.32c-0.67-0.34-1.2-0.98-1.12-1.59c0.26-1.89,0.56-3.74,0.79-5.64
			c0-0.01,0-0.01,0-0.02C81.32,82.15,80.15,81.26,79.06,81.68"/>
	</g>
	<g>
		<g>
			<path class="st0" d="M197.3,142.27c-1.79-1.79-4.17-2.78-6.71-2.78s-4.92,0.99-6.71,2.78c-1.79,1.79-2.78,4.17-2.78,6.71
				c0,2.53,0.99,4.92,2.78,6.71c1.79,1.79,4.17,2.78,6.71,2.78s4.92-0.99,6.71-2.78c1.79-1.79,2.78-4.17,2.78-6.71
				C200.08,146.45,199.09,144.06,197.3,142.27z M190.59,156.91c-4.37,0-7.93-3.56-7.93-7.93c0-4.37,3.56-7.93,7.93-7.93
				s7.93,3.56,7.93,7.93C198.51,153.35,194.96,156.91,190.59,156.91z"/>
		</g>
		<g>
			<path class="st0" d="M189.19,149.94v3.58h-2.25v-9.69h3.15c0.7,0,1.3,0.07,1.79,0.22c0.49,0.14,0.9,0.34,1.21,0.6
				c0.31,0.26,0.54,0.56,0.68,0.91c0.14,0.35,0.21,0.73,0.21,1.14c0,0.31-0.04,0.61-0.13,0.89c-0.08,0.28-0.21,0.54-0.38,0.77
				c-0.17,0.24-0.37,0.45-0.61,0.63c-0.24,0.19-0.52,0.34-0.83,0.46c0.15,0.08,0.29,0.17,0.42,0.28c0.13,0.11,0.24,0.25,0.34,0.41
				l2.06,3.37h-2.03c-0.38,0-0.65-0.14-0.81-0.43l-1.61-2.81c-0.07-0.12-0.15-0.21-0.25-0.27c-0.1-0.05-0.23-0.08-0.4-0.08H189.19z
				 M189.19,148.39h0.9c0.31,0,0.57-0.04,0.78-0.12c0.21-0.08,0.39-0.19,0.53-0.32c0.14-0.14,0.24-0.3,0.3-0.48
				c0.06-0.18,0.09-0.38,0.09-0.6c0-0.43-0.14-0.76-0.42-1c-0.28-0.24-0.71-0.36-1.29-0.36h-0.9V148.39z"/>
		</g>
	</g>
</g>
</svg>
